<svg width="1091" height="1098" viewBox="0 0 1091 1098" fill="none" xmlns="http://www.w3.org/2000/svg">
<path d="M1.03933 466.442C1.09036 369.608 32.8002 275.19 91.7697 196.288C150.739 117.386 234.045 57.9122 330.129 26.1164C426.213 -5.6793 530.313 -8.22011 627.986 18.8465C725.658 45.9131 812.062 101.245 875.209 177.166L780.197 248.773C732.668 191.628 667.634 149.981 594.117 129.609C520.601 109.236 442.247 111.148 369.926 135.08C297.605 159.013 234.903 203.778 190.518 263.166C146.133 322.553 122.265 393.62 122.227 466.505L1.03933 466.442Z" fill="#6997A2"/>
<path d="M920.945 264.385C978.883 354.467 1008.63 467.431 993.971 573.424C979.307 679.417 927.267 778.12 846.487 853.152C765.707 928.183 661.045 975.03 549.872 985.919C438.698 996.807 327.699 971.082 235.296 913.012L240.275 749.546C297.088 831.434 456.149 879.089 539.827 870.894C623.505 862.698 702.282 827.437 763.084 770.963C823.885 714.488 863.055 640.196 874.092 560.417C885.129 480.638 867.369 400.169 823.76 332.366L920.945 264.385Z" fill="#D37C4D"/>
<rect y="993.002" width="526.983" height="121.652" transform="rotate(-90 0 993.002)" fill="#6997A2"/>
<rect x="121.652" y="437.086" width="502.203" height="120.896" fill="#6997A2"/>
<path d="M629.531 663.849L956.058 1020.9L800.758 1020.9L478.29 663.85L629.531 663.849Z" fill="#D37C4D"/>
</svg>
