<svg width="384" height="475" viewBox="0 0 384 475" fill="none" xmlns="http://www.w3.org/2000/svg">
<path d="M300.774 128.529L57.3468 371.958C45.9805 383.324 26.5631 380.719 19.6959 366.274C7.38242 340.937 0.278487 312.284 0.278487 282.211C-0.195109 151.499 132.412 39.73 177.402 5.39427C186.164 -1.23608 198.004 -1.23608 206.529 5.39427C227.13 21.0229 265.728 53.4643 301.958 96.0879C310.009 105.56 309.536 119.768 300.774 128.529Z" fill="#2083FF"/>
<path opacity="0.4" d="M383.881 282.448C383.881 388.06 297.923 474.017 192.075 474.017C149.688 474.017 110.141 460.283 78.1737 436.603C66.5706 428.079 65.6234 411.029 75.8058 400.847L314.262 162.392C325.392 151.262 344.099 153.63 351.676 167.365C371.094 203.121 384.118 241.955 383.881 282.448Z" fill="#0071FF"/>
</svg>
