<svg width="147" height="168" viewBox="0 0 147 168" fill="none" xmlns="http://www.w3.org/2000/svg">
<path d="M7.20762 144.739C7.20761 147.5 9.44618 149.739 12.2076 149.739C14.969 149.739 17.2076 147.5 17.2076 144.739L7.20762 144.739ZM17.2076 144.739C17.2077 120.535 24.2497 109.278 33.5328 103.151C43.5023 96.5717 56.9706 95.0932 72.3152 92.9852C87.0111 90.9664 103.301 88.3449 115.697 77.9865C128.411 67.3623 136.062 49.5492 136.062 19.5835L126.062 19.5835C126.062 47.9453 118.856 62.3153 109.285 70.3129C99.3957 78.5764 85.9719 81.0152 70.9542 83.0782C56.5853 85.0522 40.3401 86.6771 28.0245 94.8053C15.0224 103.387 7.20767 118.442 7.20762 144.739L17.2076 144.739Z" fill="#FFC83B"/>
<circle cx="88" cy="84" r="13" fill="white" stroke="#FFC83B" stroke-width="4"/>
</svg>
