<svg width="717" height="717" viewBox="0 0 717 717" fill="none" xmlns="http://www.w3.org/2000/svg">
<path d="M458.333 158.333C495.152 158.333 525 128.486 525 91.6667C525 54.8477 495.152 25 458.333 25C421.514 25 391.667 54.8477 391.667 91.6667C391.667 128.486 421.514 158.333 458.333 158.333Z" stroke="#E57842" stroke-width="50"/>
<path d="M325 491.67V459.21C325 455.26 325 453.287 324.93 451.4C323.907 424.37 311.983 398.91 291.873 380.823C290.469 379.56 288.951 378.297 285.917 375.767C281.47 372.06 279.247 370.21 277.527 368.553C251.981 343.963 250.154 303.68 273.368 276.877C274.932 275.071 276.978 273.025 281.07 268.933L292.043 257.958C323.797 226.207 313.44 172.429 272.167 154.741C253.06 146.553 231.155 148.24 213.527 159.257L108.333 225.003" stroke="#E57842" stroke-width="50" stroke-linecap="round"/>
<path d="M58.3334 475H70.956C116.231 475 159.652 457.013 191.667 425" stroke="#E57842" stroke-width="50" stroke-linecap="round"/>
<path d="M375 291.667C407.457 302.487 442.543 302.487 475 291.667" stroke="#E57842" stroke-width="50" stroke-linecap="round"/>
<path d="M607.96 691.653H61.228C41.2197 691.653 25 675.433 25 655.427C25 637.827 37.6477 622.773 54.983 619.74L593.53 525.493C644.753 516.53 691.667 555.947 691.667 607.947C691.667 654.177 654.19 691.653 607.96 691.653Z" stroke="#E57842" stroke-width="50" stroke-linejoin="round"/>
<path d="M696.57 216.181C710.11 213.473 718.89 200.303 716.18 186.764C713.473 173.225 700.303 164.444 686.763 167.152L696.57 216.181ZM583.057 545.377L620.45 296.087L571.003 288.668L533.61 537.957L583.057 545.377ZM620.45 296.087C626.453 256.072 656.893 224.116 696.57 216.181L686.763 167.152C626.427 179.219 580.13 227.817 571.003 288.668L620.45 296.087Z" fill="#E57842"/>
</svg>
